<?xml version="1.0" encoding="utf-8"?>
<!-- Generator: Adobe Illustrator 25.4.1, SVG Export Plug-In . SVG Version: 6.00 Build 0)  -->
<svg version="1.1" baseProfile="basic" id="Layer_1"
     xmlns="http://www.w3.org/2000/svg" xmlns:xlink="http://www.w3.org/1999/xlink" x="0px" y="0px"
     width="24"
     height="24"
     fill="none"
     viewBox="0 0 435.5 100"
     xml:space="preserve">
<g>
	<path d="M147.2,72.5c-4.5,0-8.7-1-12.5-3c-3.7-2-6.7-4.8-9-8.5c-2.2-3.7-3.3-7.8-3.3-12.3c0-4.5,1.1-8.6,3.3-12.2
		c2.2-3.6,5.2-6.4,9-8.5c3.8-2,7.9-3,12.5-3c4.5,0,8.7,1,12.4,3c3.8,2,6.8,4.8,8.9,8.5c2.2,3.6,3.3,7.7,3.3,12.2
		c0,4.5-1.1,8.6-3.3,12.3c-2.2,3.6-5.2,6.4-8.9,8.5C155.8,71.5,151.7,72.5,147.2,72.5z M147.2,62.2c3.8,0,6.9-1.2,9.2-3.7
		c2.3-2.5,3.5-5.7,3.5-9.8c0-4.1-1.2-7.4-3.5-9.8c-2.3-2.5-5.3-3.7-9.2-3.7c-3.9,0-7,1.2-9.3,3.6c-2.3,2.4-3.4,5.7-3.4,9.8
		c0,4.1,1.1,7.4,3.4,9.8C140.2,61,143.3,62.2,147.2,62.2z"/>
    <path d="M190,40.4c1.1-1.7,2.7-3.1,4.7-4.2c2-1.1,4.4-1.6,7.1-1.6c3.2,0,6,0.8,8.6,2.3c2.6,1.5,4.6,3.7,6,6.6
		c1.5,2.9,2.3,6.2,2.3,10c0,3.8-0.8,7.1-2.3,10c-1.5,2.9-3.5,5.1-6,6.7c-2.6,1.5-5.4,2.3-8.6,2.3c-2.6,0-5-0.5-7.1-1.6
		c-2-1.1-3.6-2.4-4.7-4.1V83h-11.7V35.2H190V40.4z M206.7,53.5c0-2.8-0.8-5-2.5-6.6c-1.6-1.6-3.6-2.4-6-2.4c-2.3,0-4.3,0.8-6,2.4
		c-1.6,1.6-2.4,3.9-2.4,6.7c0,2.8,0.8,5,2.4,6.7c1.6,1.6,3.6,2.4,6,2.4s4.3-0.8,6-2.4C205.9,58.6,206.7,56.4,206.7,53.5z"/>
    <path d="M260.8,53c0,1.1-0.1,2.2-0.2,3.3h-26.5c0.2,2.3,0.9,4.1,2.3,5.3c1.4,1.2,3,1.8,5,1.8c2.9,0,5-1.2,6.1-3.6h12.5
		c-0.6,2.4-1.8,4.6-3.5,6.5c-1.6,1.9-3.7,3.5-6.2,4.6c-2.5,1.1-5.3,1.7-8.4,1.7c-3.7,0-7.1-0.8-10-2.3c-2.9-1.5-5.2-3.7-6.8-6.6
		c-1.6-2.9-2.5-6.2-2.5-10c0-3.8,0.8-7.2,2.4-10c1.6-2.9,3.9-5.1,6.8-6.6s6.3-2.3,10.1-2.3c3.7,0,7,0.7,9.9,2.2
		c2.9,1.5,5.1,3.6,6.7,6.4C260,46.1,260.8,49.3,260.8,53z M248.8,50c0-1.9-0.7-3.5-2.1-4.6c-1.4-1.1-3.1-1.7-5.1-1.7
		c-2,0-3.6,0.6-5,1.7c-1.3,1.1-2.1,2.7-2.5,4.7H248.8z"/>
    <path d="M290.2,34.8c4.5,0,8,1.4,10.7,4.2c2.7,2.8,4,6.6,4,11.5V72h-11.6V52c0-2.5-0.7-4.4-2-5.7c-1.3-1.4-3.1-2-5.3-2
		c-2.2,0-4,0.7-5.3,2c-1.3,1.4-2,3.3-2,5.7v20H267V35.2h11.7v4.9c1.2-1.6,2.8-2.9,4.8-3.8C285.5,35.3,287.7,34.8,290.2,34.8z"/>
    <path d="M330.5,72.5c-3.5,0-6.7-0.6-9.5-1.7c-2.8-1.1-5-2.7-6.7-4.9c-1.6-2.2-2.5-4.8-2.6-7.8h12.5c0.2,1.7,0.8,3,1.9,4
		c1,0.9,2.4,1.3,4.1,1.3c1.7,0,3.1-0.4,4.1-1.1c1-0.8,1.5-1.9,1.5-3.2c0-1.1-0.4-2.1-1.2-2.8c-0.8-0.7-1.8-1.4-2.9-1.8
		c-1.1-0.5-2.8-1-4.9-1.7c-3.1-0.9-5.6-1.8-7.6-2.8c-2-0.9-3.7-2.3-5.1-4.1c-1.4-1.8-2.1-4.2-2.1-7.1c0-4.3,1.6-7.7,4.9-10.1
		c3.2-2.5,7.5-3.7,12.7-3.7c5.3,0,9.6,1.2,12.8,3.7c3.2,2.4,5,5.8,5.2,10.2h-12.7c-0.1-1.5-0.7-2.7-1.7-3.5c-1-0.9-2.4-1.3-4-1.3
		c-1.4,0-2.6,0.4-3.4,1.1c-0.9,0.7-1.3,1.7-1.3,3.1c0,1.5,0.7,2.7,2.2,3.5c1.5,0.8,3.7,1.7,6.8,2.7c3.1,1,5.6,2,7.5,2.9
		c2,0.9,3.7,2.3,5.1,4c1.4,1.8,2.1,4,2.1,6.8c0,2.6-0.7,5-2.1,7.2c-1.4,2.2-3.4,3.9-6,5.2C337.2,71.9,334.1,72.5,330.5,72.5z"/>
    <path d="M391.3,53c0,1.1-0.1,2.2-0.2,3.3h-26.5c0.2,2.3,0.9,4.1,2.3,5.3c1.4,1.2,3,1.8,5,1.8c2.9,0,5-1.2,6.1-3.6h12.5
		c-0.6,2.4-1.8,4.6-3.5,6.5c-1.6,1.9-3.7,3.5-6.2,4.6c-2.5,1.1-5.3,1.7-8.4,1.7c-3.7,0-7.1-0.8-10-2.3c-2.9-1.5-5.2-3.7-6.8-6.6
		c-1.6-2.9-2.5-6.2-2.5-10c0-3.8,0.8-7.2,2.4-10c1.6-2.9,3.9-5.1,6.8-6.6s6.3-2.3,10.1-2.3c3.7,0,7,0.7,9.9,2.2
		c2.9,1.5,5.1,3.6,6.7,6.4C390.4,46.1,391.3,49.3,391.3,53z M379.3,50c0-1.9-0.7-3.5-2.1-4.6c-1.4-1.1-3.1-1.7-5.1-1.7
		c-2,0-3.6,0.6-5,1.7c-1.3,1.1-2.1,2.7-2.5,4.7H379.3z"/>
    <path d="M395.1,53.5c0-3.8,0.7-7.1,2.2-10c1.5-2.9,3.5-5.1,6.1-6.6s5.4-2.3,8.6-2.3c2.7,0,5,0.5,7.1,1.6c2.1,1.1,3.6,2.4,4.7,4.2
		v-5.2h11.7V72h-11.7v-5.2c-1.1,1.7-2.7,3.1-4.8,4.2c-2,1.1-4.4,1.6-7.1,1.6c-3.1,0-5.9-0.8-8.5-2.3c-2.6-1.6-4.6-3.8-6.1-6.7
		C395.8,60.7,395.1,57.3,395.1,53.5z M423.7,53.6c0-2.8-0.8-5-2.5-6.7c-1.6-1.6-3.6-2.4-5.9-2.4c-2.3,0-4.3,0.8-6,2.4
		c-1.6,1.6-2.4,3.8-2.4,6.6c0,2.8,0.8,5.1,2.4,6.7c1.6,1.6,3.6,2.4,6,2.4c2.3,0,4.3-0.8,5.9-2.4C422.9,58.6,423.7,56.4,423.7,53.6z"
    />
</g>
    <path fill="#2081E2" d="M100,50c0,27.6-22.4,50-50,50S0,77.6,0,50S22.4,0,50,0C77.6,0,100,22.4,100,50z"/>
    <path fill="#FFFFFF" d="M24.7,51.7l0.2-0.3l13-20.3c0.2-0.3,0.6-0.3,0.8,0.1c2.2,4.9,4,10.9,3.2,14.7c-0.4,1.6-1.4,3.7-2.6,5.6
	c-0.1,0.3-0.3,0.6-0.5,0.8c-0.1,0.1-0.2,0.2-0.4,0.2H25C24.7,52.4,24.5,52,24.7,51.7z"/>
    <path fill="#FFFFFF" d="M82.6,55.5v3.2c0,0.2-0.1,0.3-0.3,0.4c-1,0.4-4.5,2-5.9,4c-3.7,5.1-6.5,12.4-12.7,12.4H37.7
	C28.5,75.5,21,68,21,58.7v-0.3c0-0.2,0.2-0.4,0.4-0.4H36c0.3,0,0.5,0.3,0.5,0.5c-0.1,0.9,0.1,1.9,0.5,2.8c0.9,1.8,2.7,2.8,4.6,2.8
	h7.2v-5.6h-7.1c-0.4,0-0.6-0.4-0.4-0.7c0.1-0.1,0.2-0.2,0.3-0.4c0.7-1,1.6-2.4,2.6-4.1c0.7-1.1,1.3-2.4,1.8-3.6
	c0.1-0.2,0.2-0.4,0.3-0.7c0.1-0.4,0.3-0.8,0.4-1.1c0.1-0.3,0.2-0.6,0.3-0.9c0.2-1,0.3-2.1,0.3-3.3c0-0.4,0-0.9-0.1-1.4
	c0-0.5-0.1-1-0.1-1.5c0-0.4-0.1-0.9-0.2-1.3c-0.1-0.7-0.2-1.3-0.4-2l-0.1-0.2c-0.1-0.4-0.2-0.9-0.4-1.3c-0.4-1.4-0.9-2.8-1.4-4
	c-0.2-0.5-0.4-1-0.6-1.5c-0.3-0.7-0.6-1.4-0.9-2c-0.1-0.3-0.3-0.5-0.4-0.8c-0.1-0.3-0.3-0.6-0.4-0.9c-0.1-0.2-0.2-0.4-0.3-0.6
	l-0.9-1.6c-0.1-0.2,0.1-0.5,0.3-0.4l5.5,1.5h0c0,0,0,0,0,0l0.7,0.2l0.8,0.2l0.3,0.1v-3.3c0-1.6,1.3-2.9,2.8-2.9c0.8,0,1.5,0.3,2,0.8
	c0.5,0.5,0.8,1.2,0.8,2v4.8l0.6,0.2c0,0,0.1,0,0.1,0.1c0.1,0.1,0.3,0.3,0.6,0.5c0.2,0.2,0.4,0.4,0.7,0.6c0.5,0.4,1.2,1,1.9,1.6
	c0.2,0.2,0.4,0.3,0.5,0.5c0.9,0.8,1.9,1.8,2.9,2.9c0.3,0.3,0.5,0.6,0.8,0.9c0.3,0.3,0.5,0.7,0.8,1c0.3,0.4,0.7,0.9,1,1.3
	c0.1,0.2,0.3,0.4,0.4,0.7c0.4,0.6,0.7,1.2,1.1,1.8c0.1,0.3,0.3,0.6,0.4,0.9c0.4,0.8,0.7,1.6,0.8,2.5c0.1,0.2,0.1,0.4,0.1,0.5v0
	c0.1,0.2,0.1,0.5,0.1,0.8c0.1,0.9,0,1.7-0.1,2.6c-0.1,0.4-0.2,0.7-0.3,1.1c-0.1,0.3-0.2,0.7-0.4,1.1c-0.3,0.7-0.7,1.4-1.1,2.1
	c-0.1,0.2-0.3,0.5-0.5,0.8c-0.2,0.3-0.4,0.5-0.5,0.8c-0.2,0.3-0.5,0.6-0.7,0.9c-0.2,0.3-0.4,0.6-0.7,0.9c-0.3,0.4-0.7,0.8-1,1.2
	c-0.2,0.2-0.4,0.5-0.7,0.7c-0.2,0.2-0.4,0.5-0.7,0.7c-0.3,0.3-0.6,0.6-0.9,0.8l-0.6,0.5c-0.1,0.1-0.2,0.1-0.3,0.1h-4.4v5.6h5.5
	c1.2,0,2.4-0.4,3.3-1.2c0.3-0.3,1.7-1.5,3.4-3.3c0.1-0.1,0.1-0.1,0.2-0.1L82.1,55C82.4,54.9,82.6,55.2,82.6,55.5z"/>
</svg>
